<svg xmlns="http://www.w3.org/2000/svg" xmlns:svg="http://www.w3.org/2000/svg" id="svg4306" width="24" height="24" enable-background="new" version="1.1"><defs id="defs4308"><linearGradient id="linearGradient3770"><stop id="stop3772" offset="0" stop-color="#000" stop-opacity=".628"/><stop id="stop3774" offset="1" stop-color="#000" stop-opacity=".498"/></linearGradient><linearGradient id="linearGradient4882"><stop id="stop4884" offset="0" stop-color="#fff" stop-opacity="1"/><stop id="stop4886" offset="1" stop-color="#fff" stop-opacity="0"/></linearGradient><linearGradient id="linearGradient3784-6"><stop id="stop3786-4" offset="0" stop-color="#fff" stop-opacity=".216"/><stop id="stop3788-6" offset="1" stop-color="#fff" stop-opacity="0"/></linearGradient><linearGradient id="linearGradient4892"><stop id="stop4894" offset="0" stop-color="#2f3a42" stop-opacity="1"/><stop id="stop4896" offset="1" stop-color="#1d242a" stop-opacity="1"/></linearGradient><linearGradient id="linearGradient4882-4"><stop id="stop4884-9" offset="0" stop-color="#728495" stop-opacity="1"/><stop id="stop4886-9" offset="1" stop-color="#617c95" stop-opacity="0"/></linearGradient></defs><metadata id="metadata4311"/><g id="layer1" transform="translate(0,-1028.3622)"><g id="g3337" transform="matrix(0.01265625,0,0,-0.01265625,4.9280396,1046.8821)"><path id="path4094" fill="#d52735" fill-opacity="1" fill-rule="evenodd" stroke="none" d="m 558.77702,-37.935253 c 305.45606,0 553.08158,247.625863 553.08158,553.085803 0,305.46124 -247.62552,553.08675 -553.08158,553.08675 -305.46512,0 -553.0913044,-247.62551 -553.0913044,-553.08675 0,-305.45994 247.6261844,-553.085803 553.0913044,-553.085803"/><path id="path4096" fill="#f25056" fill-opacity="1" fill-rule="evenodd" stroke="none" d="m 558.77747,1.5676633 c 283.63699,0 513.57493,229.9429467 513.57493,513.5851867 0,283.64355 -229.93794,513.58155 -513.57493,513.58155 -283.64749,0 -513.585581,-229.938 -513.585581,-513.58155 0,-283.64224 229.938091,-513.5851867 513.585581,-513.5851867"/></g></g></svg>