<svg xmlns="http://www.w3.org/2000/svg" xmlns:svg="http://www.w3.org/2000/svg" id="svg4306" width="24" height="24" enable-background="new" version="1.1"><defs id="defs4308"><linearGradient id="linearGradient3770"><stop id="stop3772" offset="0" stop-color="#000" stop-opacity=".628"/><stop id="stop3774" offset="1" stop-color="#000" stop-opacity=".498"/></linearGradient><linearGradient id="linearGradient4882"><stop id="stop4884" offset="0" stop-color="#fff" stop-opacity="1"/><stop id="stop4886" offset="1" stop-color="#fff" stop-opacity="0"/></linearGradient><linearGradient id="linearGradient3784-6"><stop id="stop3786-4" offset="0" stop-color="#fff" stop-opacity=".216"/><stop id="stop3788-6" offset="1" stop-color="#fff" stop-opacity="0"/></linearGradient><linearGradient id="linearGradient4892"><stop id="stop4894" offset="0" stop-color="#2f3a42" stop-opacity="1"/><stop id="stop4896" offset="1" stop-color="#1d242a" stop-opacity="1"/></linearGradient><linearGradient id="linearGradient4882-4"><stop id="stop4884-9" offset="0" stop-color="#728495" stop-opacity="1"/><stop id="stop4886-9" offset="1" stop-color="#617c95" stop-opacity="0"/></linearGradient></defs><metadata id="metadata4311"/><g id="layer1" transform="translate(0,-1028.3622)"><g id="g3340" transform="matrix(0.01265625,0,0,-0.01265625,4.9280396,1046.8821)"><g id="g4285" transform="matrix(9.9999999,0,0,9.9999999,-4.0034923,0.11816995)"><path id="path4417" fill="#da9e10" fill-opacity="1" fill-rule="evenodd" stroke="none" d="m 56.277533,-3.8051186 c 30.546127,0 55.308677,24.7625166 55.308677,55.3086436 0,30.54561 -24.76255,55.308165 -55.308677,55.308165 -30.545998,0 -55.30861206,-24.762555 -55.30861206,-55.308165 0,-30.546127 24.76261406,-55.3086436 55.30861206,-55.3086436"/><g id="g4152" transform="matrix(1.0148899,0,0,1.0148899,-0.8432698,-5.0312058)"><path id="path4419" fill="#fac536" fill-opacity="1" fill-rule="evenodd" stroke="none" d="m 56.283048,5.1005059 c 27.94807,0 50.604272,22.6563571 50.604272,50.6048151 0,27.947941 -22.656202,50.604269 -50.604272,50.604269 -27.947941,0 -50.6047894,-22.656328 -50.6047894,-50.604269 0,-27.948458 22.6568484,-50.6048151 50.6047894,-50.6048151"/><path id="path4421" fill="#975914" fill-opacity="1" fill-rule="evenodd" stroke="none" d="m 23.994703,60.30905 64.576819,0 c 2.499455,0 4.544076,-2.044103 4.544076,-4.544076 l 0,-0.119823 c 0,-2.499973 -2.044621,-4.544077 -4.544076,-4.544077 l -64.576819,0 c -2.499585,0 -4.544076,2.044104 -4.544076,4.544077 l 0,0.119823 c 0,2.499973 2.044491,4.544076 4.544076,4.544076"/></g></g></g></g></svg>